<?xml version="1.0" encoding="utf-8"?>
<svg version="1.0" xmlns="http://www.w3.org/2000/svg" width="512.000000pt" height="512.000000pt" viewBox="0 0 512.000000 512.000000" preserveAspectRatio="xMidYMid meet">
  <g transform="matrix(0.077859, 0, 0, -0.081534, 44.5079, 472.316)" fill="#000000" stroke="none" style="">
    <path d="M2524 4951 c-12 -5 -31 -22 -43 -37 -19 -24 -21 -39 -21 -150 l0 -123 -42 -5 c-24 -3 -77 -8 -118 -11 -233 -20 -590 -113 -838 -219 l-82 -35 -55 109 c-30 60 -64 114 -74 120 -34 17 -88 12 -116 -12 -46 -40 -43 -80 11 -197 40 -87 46 -106 34 -113 -8 -5 -71 -40 -140 -79 -209 -119 -418 -259 -580 -389 -41 -33 -80 -60 -87 -60 -7 0 -35 33 -62 74 -67 98 -94 119 -146 113 -51 -7 -85 -44 -85 -94 0 -27 15 -58 67 -135 l68 -100 -87 -81 c-106 -101 -122 -130 -123 -222 0 -91 17 -125 113 -219 326 -318 822 -656 1235 -843 599 -270 1197 -343 1767 -217 421 94 831 276 1250 557 308 206 679 520 726 614 13 26 19 59 19 108 0 90 -26 137 -129 229 -42 37 -76 72 -76 76 0 5 29 51 65 102 51 73 65 101 65 130 0 51 -33 88 -85 95 -52 6 -79 -15 -146 -113 -27 -41 -55 -74 -62 -74 -7 0 -52 32 -101 71 -179 141 -498 349 -663 433 -29 14 -53 30 -53 35 0 4 20 51 45 104 49 106 52 124 30 167 -18 35 -43 50 -85 50 -52 0 -68 -16 -125 -129 l-54 -109 -133 53 c-154 63 -315 112 -478 148 -132 30 -309 57 -368 57 -22 0 -54 3 -71 6 l-31 7 0 123 c0 121 -1 124 -27 154 -30 32 -75 45 -109 31z m301 -545 c226 -55 393 -153 556 -323 95 -100 148 -177 209 -307 207 -438 106 -964 -250 -1299 -461 -434 -1174 -413 -1608 47 -87 92 -148 184 -208 312 -34 73 -51 97 -75 110 -65 33 -144 -12 -143 -84 0 -77 133 -314 244 -436 29 -31 50 -59 47 -62 -8 -8 -174 66 -334 147 -286 147 -616 373 -878 603 -131 114 -185 169 -185 187 0 45 394 373 665 554 226 151 501 299 694 375 l53 21 -37 -43 c-89 -105 -161 -210 -210 -312 -53 -108 -59 -127 -56 -174 2 -36 47 -72 92 -72 50 0 89 36 119 110 78 193 251 389 457 519 107 67 288 130 435 151 104 15 300 3 413 -24z m931 -265 c321 -154 618 -348 919 -600 132 -111 245 -222 245 -242 0 -10 -42 -56 -92 -103 -312 -286 -680 -542 -1023 -711 -139 -68 -295 -137 -295 -130 0 2 25 32 56 67 222 248 351 617 330 938 -20 318 -119 566 -324 813 l-64 78 53 -21 c29 -12 116 -52 195 -89z" style="paint-order: stroke; fill: rgb(111, 112, 113);"/>
    <path d="M2412 3955 c-35 -8 -103 -33 -150 -56 -72 -34 -102 -57 -173 -129 -101 -102 -158 -204 -185 -335 -32 -153 -2 -334 78 -474 74 -129 218 -243 376 -298 68 -24 92 -27 202 -27 110 0 134 3 202 27 272 95 449 323 465 602 7 118 -14 221 -70 335 -60 122 -178 241 -298 299 -142 68 -299 88 -447 56z m263 -199 c233 -62 382 -286 348 -521 -37 -258 -283 -439 -535 -397 -256 43 -434 287 -391 537 31 181 167 332 343 381 60 16 174 17 235 0z" style="paint-order: stroke; fill: rgb(111, 112, 113);"/>
    <path d="M1249 3371 c-91 -91 44 -227 138 -139 64 60 20 167 -70 168 -29 0 -45 -7 -68 -29z" style="paint-order: stroke; fill: rgb(111, 112, 113);"/>
    <path d="M81 2354 c-25 -20 -31 -34 -31 -64 0 -56 6 -65 75 -120 51 -41 70 -50 102 -50 49 0 78 20 93 64 17 52 -5 93 -80 149 -74 56 -112 61 -159 21z" style="paint-order: stroke; fill: rgb(111, 112, 113);"/>
    <path d="M4852 2311 c-91 -73 -108 -111 -77 -172 17 -32 49 -49 92 -49 28 0 120 65 154 108 27 35 24 84 -7 121 -21 26 -33 31 -69 31 -35 0 -52 -7 -93 -39z" style="paint-order: stroke; fill: rgb(111, 112, 113);"/>
    <path d="M681 1924 c-26 -21 -31 -33 -31 -68 0 -55 17 -77 94 -120 80 -45 122 -47 158 -8 60 62 39 123 -61 184 -77 46 -117 49 -160 12z" style="paint-order: stroke; fill: rgb(111, 112, 113);"/>
    <path d="M4290 1917 c-71 -37 -121 -71 -130 -87 -34 -63 14 -150 83 -150 31 0 100 32 154 71 51 36 52 111 1 154 -33 28 -70 32 -108 12z" style="paint-order: stroke; fill: rgb(111, 112, 113);"/>
    <path d="M1339 1591 c-23 -23 -29 -38 -29 -71 0 -55 26 -79 122 -114 l77 -28 38 18 c45 22 66 70 52 119 -11 38 -37 57 -113 84 -83 29 -111 27 -147 -8z" style="paint-order: stroke; fill: rgb(111, 112, 113);"/>
    <path d="M3595 1584 c-90 -32 -118 -58 -118 -115 0 -35 6 -48 32 -71 17 -15 42 -28 56 -28 42 0 159 48 183 75 31 37 29 87 -5 124 -39 41 -67 44 -148 15z" style="paint-order: stroke; fill: rgb(111, 112, 113);"/>
    <path d="M2051 1392 c-42 -41 -43 -97 -3 -135 26 -25 110 -47 183 -47 42 0 89 50 89 95 0 75 -39 102 -159 112 -79 6 -80 6 -110 -25z" style="paint-order: stroke; fill: rgb(111, 112, 113);"/>
    <path d="M2876 1409 c-80 -12 -116 -45 -116 -106 0 -77 47 -105 154 -92 94 12 104 16 127 52 27 45 24 81 -8 117 -33 36 -70 43 -157 29z" style="paint-order: stroke; fill: rgb(111, 112, 113);"/>
    <path d="M1915 966 c-16 -8 -96 -81 -177 -163 -138 -139 -148 -152 -148 -187 0 -48 13 -72 52 -92 48 -25 86 -12 148 51 30 30 58 55 62 55 4 0 8 -91 8 -203 0 -193 1 -204 21 -226 45 -48 107 -50 150 -5 23 25 24 32 29 230 l5 205 45 -46 c78 -80 126 -94 179 -49 39 33 50 84 26 122 -26 40 -293 295 -324 309 -33 15 -39 15 -76 -1z" style="paint-order: stroke; fill: rgb(111, 112, 113);"/>
    <path d="M3128 967 c-30 -14 -296 -268 -322 -309 -25 -38 -14 -89 25 -122 53 -45 101 -31 179 49 l45 46 5 -205 c5 -197 6 -205 28 -229 30 -32 65 -41 107 -27 61 20 65 36 65 260 0 110 4 200 8 200 4 0 32 -25 62 -55 62 -63 100 -76 148 -51 39 20 52 44 52 92 0 35 -10 48 -147 187 -128 129 -189 178 -220 177 -4 -1 -20 -6 -35 -13z" style="paint-order: stroke; fill: rgb(111, 112, 113);"/>
  </g>
</svg>