<?xml version="1.0" standalone="no"?>
<!DOCTYPE svg PUBLIC "-//W3C//DTD SVG 20010904//EN"
 "http://www.w3.org/TR/2001/REC-SVG-20010904/DTD/svg10.dtd">
<svg version="1.0" xmlns="http://www.w3.org/2000/svg"
 width="512.000000pt" height="512.000000pt" viewBox="0 0 512.000000 512.000000"
 preserveAspectRatio="xMidYMid meet">

<g transform="translate(0.000000,512.000000) scale(0.100000,-0.100000)"
fill="#000000" stroke="none">
<path d="M3704 4879 c-234 -202 -474 -442 -619 -617 -396 -479 -696 -1027
-871 -1592 -117 -375 -179 -713 -205 -1115 -14 -214 -8 -371 19 -446 81 -230
265 -370 502 -386 370 -24 660 323 575 686 -32 133 -145 292 -248 346 -44 23
-44 21 -22 231 67 636 258 1297 544 1889 118 243 203 392 439 771 113 180 182
300 182 316 0 37 -29 68 -71 74 -35 6 -42 1 -225 -157z m-212 -455 c-133 -216
-298 -545 -408 -816 -227 -556 -367 -1132 -419 -1726 -9 -103 -11 -171 -5
-186 6 -16 34 -38 79 -61 86 -45 143 -105 183 -192 129 -275 -91 -585 -395
-560 -140 12 -260 95 -324 224 -33 67 -37 83 -41 176 -5 124 12 401 38 593
126 947 570 1857 1233 2531 56 56 102 101 104 99 2 -2 -18 -39 -45 -82z"/>
<path d="M1484 4070 c-47 -19 -267 -342 -325 -478 -29 -67 -34 -88 -34 -163 0
-78 3 -91 37 -161 45 -91 103 -147 196 -191 61 -29 76 -32 162 -32 86 0 101 3
162 32 93 44 151 100 196 191 34 70 37 83 37 161 0 75 -5 96 -34 163 -39 92
-118 219 -221 359 -89 120 -121 142 -176 119z m136 -338 c71 -107 128 -222
137 -275 19 -122 -105 -257 -237 -257 -132 0 -256 135 -237 257 12 72 146 310
219 390 l21 22 17 -22 c10 -12 45 -64 80 -115z"/>
<path d="M4284 4070 c-47 -19 -267 -342 -325 -478 -29 -67 -34 -88 -34 -163 0
-78 3 -91 37 -161 45 -91 103 -147 196 -191 61 -29 76 -32 162 -32 86 0 101 3
162 32 93 44 151 100 196 191 34 70 37 83 37 161 0 75 -5 96 -34 163 -39 92
-118 219 -221 359 -89 120 -121 142 -176 119z m136 -338 c71 -107 128 -222
137 -275 19 -122 -105 -257 -237 -257 -132 0 -256 135 -237 257 12 72 146 310
219 390 l21 22 17 -22 c10 -12 45 -64 80 -115z"/>
<path d="M682 3108 c-44 -22 -215 -316 -258 -443 -33 -102 -29 -169 18 -257
35 -66 67 -97 142 -136 43 -22 64 -26 136 -26 72 0 93 4 136 26 75 39 107 70
142 136 47 88 51 156 18 256 -46 135 -215 423 -261 444 -31 14 -43 14 -73 0z
m101 -321 c112 -201 121 -268 46 -339 -67 -64 -151 -64 -218 0 -53 51 -62 97
-32 177 21 60 131 265 141 265 3 0 31 -46 63 -103z"/>
<path d="M3482 3108 c-44 -22 -215 -316 -258 -443 -33 -102 -29 -169 18 -257
35 -66 67 -97 142 -136 43 -22 64 -26 136 -26 72 0 93 4 136 26 75 39 107 70
142 136 47 88 51 156 18 256 -46 135 -215 423 -261 444 -31 14 -43 14 -73 0z
m101 -321 c112 -201 121 -268 46 -339 -67 -64 -151 -64 -218 0 -53 51 -62 97
-32 177 21 60 131 265 141 265 3 0 31 -46 63 -103z"/>
<path d="M80 1840 l0 -80 810 0 810 0 -7 -127 c-14 -234 -9 -480 11 -557 122
-460 551 -741 1011 -661 465 81 787 530 715 995 -14 90 -56 213 -96 288 l-35
62 871 0 870 0 0 80 0 80 -964 0 c-530 0 -972 -3 -981 -6 -23 -9 -48 -62 -41
-89 3 -13 28 -50 56 -82 59 -69 123 -192 147 -283 27 -102 24 -284 -5 -380
-77 -246 -246 -415 -492 -492 -63 -19 -95 -23 -205 -22 -115 0 -139 4 -210 28
-125 43 -201 90 -295 185 -68 68 -94 103 -128 171 -23 47 -49 112 -58 145 -30
112 -29 308 2 697 6 73 6 77 -19 102 l-26 26 -871 0 -870 0 0 -80z"/>
<path d="M400 1440 l0 -80 80 0 80 0 0 80 0 80 -80 0 -80 0 0 -80z"/>
<path d="M1200 1440 l0 -80 80 0 80 0 0 80 0 80 -80 0 -80 0 0 -80z"/>
<path d="M3760 1440 l0 -80 80 0 80 0 0 80 0 80 -80 0 -80 0 0 -80z"/>
<path d="M4560 1440 l0 -80 80 0 80 0 0 80 0 80 -80 0 -80 0 0 -80z"/>
<path d="M800 1120 l0 -80 80 0 80 0 0 80 0 80 -80 0 -80 0 0 -80z"/>
<path d="M4160 1120 l0 -80 80 0 80 0 0 80 0 80 -80 0 -80 0 0 -80z"/>
<path d="M400 800 l0 -80 80 0 80 0 0 80 0 80 -80 0 -80 0 0 -80z"/>
<path d="M1200 800 l0 -80 80 0 80 0 0 80 0 80 -80 0 -80 0 0 -80z"/>
<path d="M3760 800 l0 -80 80 0 80 0 0 80 0 80 -80 0 -80 0 0 -80z"/>
<path d="M4560 800 l0 -80 80 0 80 0 0 80 0 80 -80 0 -80 0 0 -80z"/>
<path d="M800 480 l0 -80 80 0 80 0 0 80 0 80 -80 0 -80 0 0 -80z"/>
<path d="M1600 480 l0 -80 80 0 80 0 0 80 0 80 -80 0 -80 0 0 -80z"/>
<path d="M3360 480 l0 -80 80 0 80 0 0 80 0 80 -80 0 -80 0 0 -80z"/>
<path d="M4160 480 l0 -80 80 0 80 0 0 80 0 80 -80 0 -80 0 0 -80z"/>
<path d="M80 160 l0 -80 2480 0 2480 0 0 80 0 80 -2480 0 -2480 0 0 -80z"/>
</g>
</svg>
