<?xml version="1.0" encoding="utf-8"?>
<svg version="1.0" xmlns="http://www.w3.org/2000/svg" width="512.000000pt" height="512.000000pt" viewBox="0 0 512.000000 512.000000" preserveAspectRatio="xMidYMid meet">
  <g transform="translate(0.000000,512.000000) scale(0.100000,-0.100000)" fill="#000000" stroke="none">
    <path d="M1430 5104 c-42 -18 -86 -58 -108 -99 -14 -25 -18 -69 -20 -262 -6 -392 12 -658 148 -2213 73 -822 135 -1569 139 -1659 6 -155 8 -164 30 -182 30 -25 62 -24 95 2 22 18 26 28 26 75 l0 54 820 0 820 0 0 -277 c0 -245 -2 -282 -18 -312 -23 -47 -61 -72 -116 -78 l-46 -6 0 84 c-1 46 -5 103 -9 127 -10 53 -60 108 -111 122 -47 13 -993 13 -1040 0 -51 -14 -101 -69 -111 -122 -4 -24 -8 -81 -9 -127 l0 -84 -46 6 c-91 10 -134 68 -134 183 0 80 -15 108 -62 120 -22 5 -34 0 -59 -26 l-32 -31 5 -92 c8 -141 54 -223 161 -279 l42 -23 765 0 765 0 42 23 c58 30 111 86 137 141 20 44 21 66 27 456 l6 410 121 1375 c67 756 123 1398 124 1427 3 66 -18 93 -73 93 -30 0 -42 -6 -55 -25 -13 -20 -35 -232 -110 -1093 -52 -587 -94 -1070 -94 -1075 0 -13 -123 -98 -190 -132 -36 -17 -97 -44 -136 -59 -69 -26 -94 -50 -94 -90 0 -28 41 -66 70 -66 42 0 186 54 263 100 37 21 67 33 67 27 0 -28 -41 -504 -46 -525 l-4 -22 -820 0 -820 0 -4 23 c-5 20 -46 496 -46 524 0 6 34 -8 75 -32 101 -57 292 -119 450 -146 105 -18 172 -23 347 -23 205 -1 218 0 245 20 37 28 43 81 12 110 -19 18 -38 19 -243 20 -230 1 -301 8 -470 50 -155 39 -314 114 -404 191 l-32 28 -100 1145 c-92 1047 -133 1633 -116 1675 5 13 142 15 1108 13 l1103 -3 -3 -174 c-2 -96 -1 -184 2 -197 8 -30 58 -56 91 -48 55 14 56 23 62 406 7 395 3 435 -51 496 -17 19 -49 43 -71 53 -38 18 -97 19 -1135 18 -956 0 -1099 -2 -1130 -15z m280 -259 l0 -125 -130 0 -130 0 0 103 c0 147 0 147 146 147 l114 0 0 -125z m390 0 l0 -125 -120 0 -120 0 0 125 0 125 120 0 120 0 0 -125z m380 0 l0 -125 -115 0 -115 0 0 125 0 125 115 0 115 0 0 -125z m390 0 l0 -125 -115 0 -115 0 0 125 0 125 115 0 115 0 0 -125z m390 0 l0 -125 -120 0 -120 0 0 125 0 125 120 0 120 0 0 -125z m394 103 c12 -17 16 -48 16 -125 l0 -103 -130 0 -130 0 0 125 0 125 114 0 c107 0 116 -1 130 -22z m-606 -4705 l3 -93 -491 0 -490 0 0 88 c0 49 3 92 7 95 3 4 223 6 487 5 l481 -3 3 -92z" style="fill: rgb(111, 112, 113);"/>
    <path d="M1852 4307 c-115 -42 -174 -175 -123 -275 31 -60 69 -87 186 -133 156 -62 182 -93 126 -150 -25 -24 -37 -29 -81 -29 -59 0 -100 16 -154 59 -48 39 -70 39 -108 1 -24 -25 -29 -36 -23 -58 26 -105 253 -186 382 -137 112 43 181 155 154 253 -14 52 -47 101 -88 130 -16 11 -75 39 -133 62 -122 50 -130 55 -130 86 0 61 102 72 198 23 55 -29 64 -31 91 -20 33 14 56 59 46 90 -24 78 -233 137 -343 98z" style="fill: rgb(111, 112, 113);"/>
    <path d="M2410 4300 c-19 -19 -20 -33 -20 -353 l0 -334 23 -21 c33 -31 80 -29 106 4 18 23 21 41 21 130 l0 104 58 0 c124 0 210 49 258 146 23 47 26 63 22 117 -6 72 -23 111 -70 157 -58 59 -97 70 -245 70 -120 0 -135 -2 -153 -20z m291 -159 c47 -48 35 -118 -28 -150 -12 -6 -47 -11 -77 -11 l-56 0 0 95 0 95 66 0 c59 0 68 -3 95 -29z" style="fill: rgb(111, 112, 113);"/>
    <path d="M3074 4295 l-25 -25 3 -331 3 -331 24 -19 c30 -25 62 -24 95 2 26 20 26 22 26 155 l0 134 93 0 c102 0 119 8 132 61 5 20 0 33 -18 55 -24 27 -30 29 -116 32 l-91 4 0 69 0 69 90 0 c49 0 100 5 114 11 51 23 55 103 7 128 -11 6 -82 11 -166 11 -142 0 -147 -1 -171 -25z" style="fill: rgb(111, 112, 113);"/>
    <path d="M2509 3361 c-22 -18 -24 -26 -24 -124 0 -123 12 -147 75 -147 63 0 75 24 75 147 0 98 -2 106 -24 124 -13 10 -36 19 -51 19 -15 0 -38 -9 -51 -19z" style="fill: rgb(111, 112, 113);"/>
    <path d="M1980 3140 c-12 -12 -20 -33 -20 -53 0 -29 11 -44 74 -105 83 -80 110 -89 151 -47 42 41 33 68 -47 151 -61 63 -76 74 -105 74 -20 0 -41 -8 -53 -20z" style="fill: rgb(111, 112, 113);"/>
    <path d="M2982 3086 c-80 -83 -89 -110 -47 -151 41 -42 68 -33 151 47 63 61 74 76 74 105 0 20 -8 41 -20 53 -12 12 -33 20 -53 20 -29 0 -44 -11 -105 -74z" style="fill: rgb(111, 112, 113);"/>
    <path d="M2445 2957 c-118 -40 -207 -117 -258 -225 -30 -62 -32 -75 -32 -172 0 -97 2 -110 32 -172 41 -88 113 -160 201 -201 62 -30 75 -32 172 -32 97 0 110 2 172 32 40 19 89 53 118 83 30 29 64 78 83 118 30 62 32 75 32 172 0 97 -2 110 -31 170 -46 95 -102 153 -191 197 -68 34 -84 37 -167 40 -56 2 -106 -2 -131 -10z m232 -161 c41 -21 97 -77 120 -119 13 -23 18 -55 18 -117 0 -95 -12 -126 -70 -185 -59 -58 -90 -70 -185 -70 -80 0 -89 2 -137 33 -129 83 -164 248 -77 373 27 39 89 86 133 100 41 13 162 4 198 -15z" style="fill: rgb(111, 112, 113);"/>
    <path d="M1756 2608 c-21 -30 -20 -71 3 -99 18 -22 26 -24 124 -24 123 0 147 12 147 75 0 61 -19 70 -148 70 -103 0 -112 -2 -126 -22z" style="fill: rgb(111, 112, 113);"/>
    <path d="M3107 2612 c-24 -27 -22 -85 4 -108 18 -16 37 -19 126 -19 98 0 106 2 124 24 23 28 24 69 3 99 -14 21 -23 22 -128 22 -97 0 -115 -3 -129 -18z" style="fill: rgb(111, 112, 113);"/>
    <path d="M2034 2138 c-63 -61 -74 -76 -74 -105 0 -20 8 -41 20 -53 12 -12 33 -20 53 -20 29 0 44 11 105 74 80 83 89 110 47 151 -41 42 -68 33 -151 -47z" style="fill: rgb(111, 112, 113);"/>
    <path d="M2935 2185 c-42 -41 -33 -68 47 -151 61 -63 76 -74 105 -74 43 0 73 30 73 73 0 29 -11 44 -74 105 -83 80 -110 89 -151 47z" style="fill: rgb(111, 112, 113);"/>
    <path d="M2504 2009 c-16 -18 -19 -37 -19 -126 0 -98 2 -106 24 -124 30 -24 76 -24 100 0 37 37 40 213 4 253 -23 26 -84 24 -109 -3z" style="fill: rgb(111, 112, 113);"/>
  </g>
</svg>