<?xml version="1.0" standalone="no"?>
<!DOCTYPE svg PUBLIC "-//W3C//DTD SVG 20010904//EN"
 "http://www.w3.org/TR/2001/REC-SVG-20010904/DTD/svg10.dtd">
<svg version="1.0" xmlns="http://www.w3.org/2000/svg"
 width="512.000000pt" height="512.000000pt" viewBox="0 0 512.000000 512.000000"
 preserveAspectRatio="xMidYMid meet">

<g transform="translate(0.000000,512.000000) scale(0.100000,-0.100000)"
fill="#000000" stroke="none">
<path d="M3797 4983 c-8 -10 -25 -43 -37 -73 -51 -129 -125 -263 -185 -333
-159 -186 -323 -310 -545 -412 -184 -84 -312 -118 -877 -235 -296 -61 -565
-118 -598 -126 -450 -111 -789 -480 -866 -944 -13 -77 -12 -272 2 -360 24
-158 104 -355 197 -485 20 -27 126 -153 237 -280 259 -297 345 -400 427 -510
234 -317 297 -541 206 -738 -57 -123 -203 -222 -348 -234 -75 -6 -94 -18 -88
-55 3 -22 7 -23 78 -23 126 1 251 58 353 160 83 83 127 198 127 334 0 98 -22
184 -76 299 -97 209 -202 348 -613 817 -217 248 -260 303 -313 410 -77 152
-107 268 -115 440 -14 296 88 569 291 783 90 95 179 162 291 218 l90 45 5
-708 c6 -683 7 -712 28 -810 50 -228 144 -415 292 -578 35 -38 246 -240 469
-448 371 -346 412 -381 485 -418 101 -49 195 -64 356 -55 165 8 246 37 350
125 30 25 152 136 270 246 l215 200 2 -85 c5 -154 23 -344 43 -433 39 -175
115 -361 212 -514 43 -68 61 -83 89 -76 37 10 32 41 -16 116 -93 144 -167 322
-207 501 -16 72 -22 142 -27 331 l-7 240 108 103 c59 57 108 110 108 117 0 17
-27 45 -44 45 -7 0 -196 -171 -420 -380 -448 -417 -464 -429 -606 -451 -103
-16 -272 -5 -342 21 -30 11 -75 34 -99 50 -57 37 -840 769 -900 840 -129 153
-204 307 -252 515 -19 85 -21 126 -24 812 l-4 722 39 10 c22 6 268 58 548 116
280 58 545 114 589 126 327 83 615 234 815 426 l55 53 140 -107 c392 -297 628
-487 707 -566 l88 -89 0 -643 c0 -572 2 -645 16 -659 8 -9 21 -16 28 -16 35 0
36 13 36 607 0 321 4 583 8 583 26 0 154 -260 205 -415 55 -168 71 -274 71
-480 1 -258 -32 -425 -125 -643 -39 -93 -43 -125 -14 -136 28 -11 47 7 77 73
152 335 189 727 102 1091 -74 312 -232 589 -460 810 -55 53 -260 219 -456 370
-197 151 -358 278 -358 282 0 4 18 31 40 60 68 89 190 345 190 398 0 11 -9 24
-19 30 -25 13 -25 13 -44 -7z"/>
<path d="M3156 4799 c-55 -82 -59 -122 -14 -127 22 -3 32 5 66 55 59 88 64
100 52 123 -22 41 -54 25 -104 -51z"/>
<path d="M896 4676 c-105 -158 -177 -333 -218 -535 -34 -170 -26 -521 14 -568
14 -18 43 -16 58 2 10 12 11 33 1 100 -6 46 -12 140 -12 209 0 278 79 529 246
779 43 64 41 89 -7 95 -21 3 -33 -10 -82 -82z"/>
<path d="M2931 4545 c-141 -107 -284 -176 -436 -210 -94 -22 -107 -30 -103
-64 3 -25 5 -26 63 -24 109 3 304 80 449 177 95 64 146 109 146 130 0 15 -26
46 -39 46 -4 0 -40 -25 -80 -55z"/>
<path d="M922 3852 c-27 -61 -71 -214 -79 -268 -5 -35 -2 -44 15 -53 33 -18
51 -2 67 58 9 31 32 106 52 168 39 121 37 143 -12 143 -17 0 -27 -11 -43 -48z"/>
<path d="M1965 3614 c-74 -11 -242 -47 -257 -55 -23 -12 -23 -55 -2 -67 11 -6
45 -3 98 8 360 79 638 31 751 -130 34 -48 69 -59 88 -29 26 41 -68 156 -170
207 -97 49 -163 63 -328 67 -82 2 -163 1 -180 -1z"/>
<path d="M3740 3610 c-129 -21 -239 -77 -310 -158 -60 -68 -68 -124 -18 -130
20 -2 31 3 44 25 53 85 128 137 245 169 101 28 340 24 487 -8 98 -22 115 -23
132 -11 50 35 13 64 -120 93 -117 25 -363 36 -460 20z"/>
<path d="M1737 3000 c-64 -25 -79 -38 -75 -69 4 -35 36 -38 101 -11 55 24 126
23 166 -2 27 -16 26 -25 0 -33 -31 -10 -99 -75 -99 -94 0 -22 19 -41 41 -41 9
0 33 13 54 30 66 52 107 55 215 16 25 -9 78 -21 118 -27 190 -27 448 73 350
135 -13 8 -26 7 -50 -3 -100 -41 -145 -51 -223 -51 -107 0 -194 27 -282 87
-37 25 -86 54 -108 64 -52 24 -145 24 -208 -1z"/>
<path d="M4089 3005 c-20 -7 -65 -34 -100 -59 -102 -74 -153 -90 -294 -90
-110 -1 -126 1 -188 28 -74 31 -97 26 -97 -20 0 -27 43 -53 130 -78 126 -35
235 -29 378 20 85 29 130 23 186 -26 18 -17 43 -30 54 -30 28 0 46 34 32 60
-12 23 -67 66 -100 78 l-24 9 26 17 c43 28 116 31 171 7 57 -25 80 -26 97 -6
21 25 1 52 -59 79 -66 29 -150 34 -212 11z"/>
<path d="M4173 2570 c-221 -58 -405 -213 -502 -422 -61 -131 -93 -328 -58
-356 6 -5 163 -46 348 -92 l336 -82 139 -107 c76 -60 249 -210 383 -335 134
-124 251 -226 260 -226 22 0 41 19 41 42 0 10 -103 113 -240 240 -132 122
-240 227 -240 231 0 5 25 34 55 65 l54 57 53 -51 c180 -172 262 -244 277 -244
22 0 41 19 41 42 0 9 -72 84 -166 170 -91 84 -216 210 -277 279 l-112 127
-109 328 c-60 181 -113 335 -119 342 -14 17 -80 14 -164 -8z m207 -365 c101
-302 101 -305 83 -329 -10 -14 -21 -26 -24 -26 -3 0 -22 54 -43 119 -22 71
-43 122 -52 125 -28 11 -43 6 -54 -15 -9 -16 -2 -47 35 -160 l47 -140 -34 -38
c-18 -22 -40 -37 -48 -35 -8 2 -109 27 -225 55 -115 28 -211 52 -212 53 -1 1
4 29 12 63 19 83 57 165 111 245 52 75 54 108 5 108 -58 0 -170 -202 -205
-371 -6 -26 -7 -26 -52 -16 l-46 11 6 58 c25 215 171 423 371 526 46 24 184
70 212 71 6 1 56 -132 113 -304z m233 -472 l76 -86 -56 -64 c-30 -35 -60 -63
-65 -63 -5 0 -48 30 -96 67 -48 37 -89 68 -91 69 -5 4 140 164 149 164 4 0 41
-39 83 -87z"/>
<path d="M4081 2341 c-35 -33 -38 -43 -15 -65 22 -22 38 -20 73 10 35 29 38
45 15 68 -22 23 -38 20 -73 -13z"/>
<path d="M2822 2104 c-28 -19 -28 -38 1 -65 43 -41 124 -71 191 -71 98 1 206
57 206 107 0 44 -32 48 -85 13 -82 -54 -169 -50 -261 11 -28 19 -32 19 -52 5z"/>
<path d="M15 1836 c-18 -13 -19 -18 -7 -63 34 -132 133 -274 254 -365 87 -66
124 -85 372 -193 105 -46 226 -99 269 -119 243 -112 423 -258 495 -402 25 -48
42 -145 35 -192 -6 -38 10 -62 43 -62 36 0 48 33 41 121 -11 133 -60 231 -175
342 -144 141 -261 209 -642 374 -307 133 -362 165 -455 258 -78 78 -133 166
-151 241 -9 39 -31 74 -47 74 -7 0 -22 -6 -32 -14z"/>
<path d="M2791 1775 c-30 -14 -76 -42 -104 -62 -56 -42 -137 -145 -137 -176 0
-30 73 -121 133 -166 168 -127 373 -152 552 -67 92 43 161 100 209 169 50 73
46 88 -52 186 -125 126 -237 167 -337 125 -35 -14 -42 -14 -79 0 -60 23 -122
20 -185 -9z m155 -71 c40 -17 90 -15 160 7 34 10 47 10 75 -1 56 -24 143 -87
177 -129 l33 -41 -28 -37 c-74 -98 -215 -164 -347 -164 -90 0 -142 13 -218 53
-56 30 -158 125 -158 148 0 22 116 126 169 153 63 31 84 33 137 11z"/>
</g>
</svg>
