<?xml version="1.0" encoding="utf-8"?>
<svg version="1.0" xmlns="http://www.w3.org/2000/svg" width="512.000000pt" height="512.000000pt" viewBox="0 0 512.000000 512.000000" preserveAspectRatio="xMidYMid meet">
  <g transform="translate(0.000000,512.000000) scale(0.100000,-0.100000)" fill="#000000" stroke="none">
    <path d="M2278 4660 c-500 -79 -796 -286 -849 -596 l-12 -70 -75 -49 c-168 -110 -308 -276 -377 -447 -52 -128 -68 -220 -70 -403 l-2 -160 -37 -84 c-89 -203 -145 -504 -126 -674 45 -395 286 -704 579 -743 47 -6 51 -9 62 -43 39 -123 128 -288 220 -408 59 -78 246 -273 261 -273 4 0 8 -88 8 -195 l0 -195 55 0 55 0 0 145 c0 80 2 145 5 145 2 0 36 -21 75 -46 152 -98 277 -136 455 -136 178 0 328 46 476 146 l54 36 3 -145 3 -145 54 0 55 0 0 185 0 186 108 107 c108 108 193 213 253 313 50 85 105 199 124 260 l18 55 70 13 c293 50 534 378 563 768 13 175 -55 493 -146 686 -27 57 -28 63 -23 180 16 374 -139 671 -459 883 -62 40 -68 48 -68 78 0 88 -72 241 -153 324 -224 233 -741 367 -1159 302z m397 -105 c364 -52 594 -153 715 -314 45 -60 91 -163 79 -176 -3 -3 -42 8 -87 25 -220 80 -450 116 -682 105 -198 -9 -198 -9 -370 0 -231 12 -475 -24 -689 -101 -52 -19 -96 -32 -99 -30 -7 8 18 78 45 125 107 187 366 314 743 366 128 17 225 17 345 0z m-190 -485 c21 -7 54 -27 72 -45 30 -30 33 -38 33 -94 0 -103 -50 -224 -162 -391 -90 -134 -158 -211 -413 -470 -309 -314 -423 -458 -523 -656 -77 -153 -106 -292 -133 -623 -10 -135 -21 -246 -23 -248 -2 -2 -25 1 -50 7 -267 60 -479 437 -445 791 33 351 170 655 362 807 71 57 183 116 252 133 43 11 46 14 40 37 -3 13 -9 37 -12 53 -5 25 -9 28 -32 23 -141 -34 -256 -100 -380 -218 l-73 -71 7 85 c30 353 233 614 597 769 148 63 262 92 493 125 57 8 350 -3 390 -14z m455 10 c211 -26 396 -79 556 -160 226 -116 382 -279 458 -481 29 -78 56 -212 56 -280 l0 -49 -63 63 c-73 74 -125 111 -223 160 -66 33 -181 73 -189 65 -2 -2 -7 -26 -10 -53 l-7 -50 69 -23 c244 -83 427 -293 517 -592 73 -245 90 -466 48 -623 -24 -89 -85 -224 -131 -291 -77 -111 -206 -202 -312 -220 l-36 -6 -12 172 c-33 470 -75 623 -236 863 -128 191 -168 238 -500 575 -205 208 -345 374 -345 407 0 7 16 46 36 86 85 167 108 309 64 399 -11 23 -20 43 -20 45 0 7 203 2 280 -7z m-372 -705 c30 -40 103 -126 164 -189 60 -64 106 -116 101 -116 -4 0 -44 7 -88 16 -54 11 -132 17 -240 17 -108 0 -186 -6 -240 -17 -44 -9 -84 -16 -89 -16 -5 0 38 48 95 108 58 59 134 144 169 190 35 45 66 82 69 82 3 -1 30 -34 59 -75z m67 -385 c115 -13 240 -44 332 -82 77 -32 115 -66 240 -219 189 -232 274 -409 313 -652 12 -79 40 -418 40 -494 0 -96 -74 -273 -182 -435 -109 -163 -342 -380 -512 -477 -167 -96 -382 -121 -566 -65 -142 43 -314 158 -475 319 -172 172 -281 341 -345 534 l-32 95 17 220 c31 419 66 554 197 756 62 96 151 211 245 316 57 64 73 75 146 104 191 75 384 102 582 80z" style="fill: rgb(111, 112, 113); paint-order: stroke;"/>
    <path d="M1940 2388 c-130 -17 -279 -118 -330 -223 -77 -159 -36 -332 106 -448 101 -82 239 -119 370 -99 176 28 315 137 358 282 83 280 -175 531 -504 488z m217 -130 c29 -10 74 -39 101 -63 150 -135 111 -345 -81 -436 -145 -68 -321 -38 -423 73 -55 60 -78 123 -71 194 20 196 257 312 474 232z" style="fill: rgb(111, 112, 113); paint-order: stroke;"/>
    <path d="M2164 2061 c-97 -89 -186 -93 -298 -14 l-48 35 -44 -17 c-24 -9 -44 -22 -44 -30 0 -21 89 -95 148 -123 46 -22 72 -27 132 -27 86 0 146 23 217 81 74 60 76 79 14 123 l-26 19 -51 -47z" style="fill: rgb(111, 112, 113); paint-order: stroke;"/>
    <path d="M2940 2390 c-186 -22 -335 -142 -376 -302 -68 -264 198 -513 503 -470 148 21 282 113 344 239 20 41 24 63 24 148 0 86 -3 106 -24 145 -90 172 -270 263 -471 240z m170 -122 c57 -17 102 -44 144 -85 53 -52 76 -105 76 -179 1 -299 -477 -389 -635 -119 -96 163 30 365 245 394 61 8 117 4 170 -11z" style="fill: rgb(111, 112, 113); paint-order: stroke;"/>
    <path d="M3144 2060 c-81 -74 -162 -87 -254 -40 -19 10 -44 27 -54 39 -11 12 -24 21 -30 21 -22 0 -96 -33 -96 -43 0 -21 94 -100 149 -126 45 -21 71 -26 131 -26 93 0 160 29 240 103 61 56 62 47 -10 101 l-25 19 -51 -48z" style="fill: rgb(111, 112, 113); paint-order: stroke;"/>
    <path d="M2213 1430 c-81 -17 -144 -66 -186 -144 -31 -58 -31 -174 0 -232 28 -53 105 -121 152 -134 20 -6 166 -10 337 -10 l300 0 50 25 c60 30 84 53 118 119 21 39 26 63 26 115 -1 111 -56 199 -152 242 -51 23 -63 24 -328 26 -151 1 -294 -2 -317 -7z m572 -111 c131 -36 158 -209 43 -279 -31 -19 -51 -20 -323 -20 -270 0 -292 1 -322 20 -46 28 -76 92 -70 148 6 56 32 91 87 120 42 21 55 22 295 22 149 0 266 -5 290 -11z" style="fill: rgb(111, 112, 113); paint-order: stroke;"/>
    <path d="M2183 1247 l-42 -30 19 -28 c11 -15 41 -41 66 -58 179 -118 454 -103 601 32 24 22 43 43 43 47 0 3 -18 21 -41 40 l-41 32 -36 -35 c-48 -45 -83 -62 -160 -77 -121 -24 -249 4 -324 70 l-43 38 -42 -31z" style="fill: rgb(111, 112, 113); paint-order: stroke;"/>
  </g>
</svg>