<?xml version="1.0" encoding="utf-8"?>
<svg version="1.0" xmlns="http://www.w3.org/2000/svg" width="512.000000pt" height="512.000000pt" viewBox="0 0 512.000000 512.000000" preserveAspectRatio="xMidYMid meet">
  <g transform="translate(0.000000,512.000000) scale(0.100000,-0.100000)" fill="#000000" stroke="none">
    <path d="M2282 5099 c-91 -46 -102 -91 -102 -434 l0 -252 -41 -6 c-55 -7 -112 -47 -134 -94 -15 -29 -20 -69 -23 -180 l-4 -141 -32 -6 c-48 -9 -147 -60 -183 -94 -40 -37 -43 -73 -8 -107 32 -33 61 -31 117 4 76 48 127 61 247 61 l109 0 4 -152 c4 -178 14 -206 78 -234 l40 -18 0 -73 0 -73 -305 0 -305 0 0 103 c0 150 -19 196 -81 197 -37 0 -67 -33 -74 -82 -3 -24 -5 -503 -3 -1064 3 -989 4 -1023 22 -1043 26 -28 86 -29 112 0 15 17 19 40 22 130 l4 109 68 0 67 0 11 -104 c8 -82 17 -118 41 -170 60 -125 177 -222 326 -269 64 -20 90 -22 310 -22 204 0 249 3 300 18 152 47 271 155 334 306 17 41 39 166 41 234 0 4 32 7 70 7 l70 0 0 -355 0 -355 -819 0 -819 0 -4 99 c-3 80 -7 104 -22 120 -26 29 -86 28 -112 0 -18 -20 -19 -43 -19 -483 l0 -461 28 -57 c30 -61 64 -95 131 -131 l41 -22 775 0 775 0 41 22 c67 36 101 70 131 131 l28 57 3 986 c3 1071 4 1054 -50 1073 -43 15 -81 -3 -95 -44 -8 -22 -12 -107 -12 -232 l-1 -198 -69 0 -69 0 -7 54 c-7 62 -30 97 -75 116 l-30 12 0 160 c0 169 -7 205 -50 243 -17 16 -36 20 -91 20 l-69 0 0 40 c0 63 -18 110 -55 146 -52 51 -81 57 -273 58 -184 1 -221 -6 -271 -52 -28 -26 -60 -92 -61 -124 0 -22 -4 -23 -80 -23 -93 0 -131 -15 -160 -63 -17 -27 -20 -51 -20 -144 0 -106 -1 -113 -20 -113 -32 0 -80 -51 -90 -95 -5 -22 -10 -84 -10 -137 l0 -98 -70 0 -70 0 0 495 0 495 819 0 819 0 3 -131 c4 -129 4 -131 32 -155 35 -30 59 -30 94 0 l28 24 0 539 c0 537 0 538 -23 603 -31 86 -73 150 -136 206 -53 49 -148 100 -203 110 l-33 6 0 108 c0 129 -12 201 -41 242 -25 34 -90 67 -131 68 l-28 0 0 254 c0 271 -7 340 -41 388 -44 61 -77 68 -339 68 -219 0 -238 -1 -278 -21z m496 -411 l2 -278 -220 0 -220 0 0 273 c0 151 3 277 7 281 4 3 102 5 217 4 l211 -3 3 -277z m200 -560 l3 -128 -421 0 -420 0 0 123 c0 68 3 127 7 130 4 4 191 6 417 5 l411 -3 3 -127z m-248 -403 l0 -125 -170 0 -170 0 0 125 0 125 170 0 170 0 0 -125z m461 96 c68 -32 121 -81 154 -142 29 -53 30 -58 33 -216 l4 -163 -306 0 -306 0 0 73 0 73 40 18 c64 28 74 56 78 234 l4 154 127 -4 c105 -3 134 -8 172 -27z m-571 -446 l0 -75 -60 0 -60 0 0 75 0 75 60 0 60 0 0 -75z m-270 -330 l0 -105 -305 0 -305 0 0 105 0 105 305 0 305 0 0 -105z m270 0 l0 -105 -60 0 -60 0 0 105 0 105 60 0 60 0 0 -105z m760 0 l0 -105 -305 0 -305 0 0 105 0 105 305 0 305 0 0 -105z m-622 -557 c7 -7 12 -37 12 -68 0 -56 -1 -57 -37 -74 -21 -9 -49 -25 -62 -35 -24 -19 -25 -18 -82 21 -32 21 -84 49 -116 62 -48 20 -59 29 -61 51 -6 51 6 55 177 55 109 0 161 -4 169 -12z m-424 -208 c107 -27 169 -63 252 -145 73 -73 129 -166 140 -236 5 -32 3 -39 -24 -57 l-30 -22 -46 54 c-106 124 -258 209 -448 250 -28 6 -28 7 -28 91 l0 85 53 0 c30 0 89 -9 131 -20z m646 -165 c0 -162 5 -152 -76 -169 -30 -7 -31 -6 -52 51 -12 32 -39 88 -61 123 l-39 65 44 23 c44 22 133 50 167 51 15 1 17 -12 17 -144z m-730 -165 c85 -29 162 -76 228 -141 88 -86 90 -90 54 -146 -71 -111 -112 -240 -112 -355 0 -37 -4 -69 -9 -72 -16 -10 -124 15 -176 41 -81 41 -131 88 -164 155 l-31 61 0 245 0 245 73 -6 c39 -3 101 -15 137 -27z m830 -275 c0 -187 -14 -235 -92 -321 -83 -90 -173 -124 -333 -124 l-85 0 0 71 c0 79 32 191 76 262 87 141 256 248 422 266 9 1 12 -36 12 -154z m-730 -1105 l0 -221 25 -24 c13 -14 35 -25 49 -25 15 0 70 33 143 86 197 144 203 152 203 304 l0 100 305 0 305 0 0 -275 c0 -307 -2 -320 -64 -349 -30 -14 -108 -16 -756 -16 -648 0 -726 2 -756 16 -62 29 -64 42 -64 349 l0 275 305 0 305 0 0 -220z m270 131 l0 -89 -55 -41 c-30 -22 -57 -41 -60 -41 -3 0 -5 59 -5 130 l0 130 60 0 60 0 0 -89z" style="fill: rgb(111, 112, 113); paint-order: stroke;"/>
    <path d="M2504 4789 c-15 -17 -19 -36 -19 -99 0 -94 16 -120 75 -120 59 0 75 26 75 120 0 94 -16 120 -75 120 -25 0 -43 -7 -56 -21z" style="fill: rgb(111, 112, 113); paint-order: stroke;"/>
  </g>
</svg>