<?xml version="1.0" standalone="no"?>
<!DOCTYPE svg PUBLIC "-//W3C//DTD SVG 20010904//EN"
 "http://www.w3.org/TR/2001/REC-SVG-20010904/DTD/svg10.dtd">
<svg version="1.0" xmlns="http://www.w3.org/2000/svg"
 width="512.000000pt" height="512.000000pt" viewBox="0 0 512.000000 512.000000"
 preserveAspectRatio="xMidYMid meet">

<g transform="translate(0.000000,512.000000) scale(0.100000,-0.100000)"
fill="#000000" stroke="none">
<path d="M2383 5105 c-102 -31 -185 -104 -232 -204 -22 -48 -26 -70 -26 -148
l0 -91 123 -247 c68 -136 122 -248 120 -250 -2 -1 -45 -24 -97 -51 -52 -27
-106 -61 -121 -75 -32 -33 -53 -100 -45 -142 9 -40 290 -594 318 -624 30 -33
99 -57 143 -48 20 3 101 39 180 78 79 39 145 69 147 67 2 -3 172 -336 376
-740 205 -404 384 -748 399 -763 14 -15 50 -39 79 -54 47 -22 63 -25 123 -21
151 11 251 127 237 278 -5 61 7 37 -584 1197 l-174 342 133 67 c201 100 228
127 228 224 0 46 -15 80 -146 338 -81 158 -156 298 -168 311 -11 13 -35 30
-53 37 -58 25 -103 17 -213 -37 -98 -47 -105 -49 -117 -33 -7 10 -59 108 -115
219 -55 110 -114 219 -131 242 -79 112 -252 170 -384 128z m224 -114 c66 -34
98 -80 215 -314 l115 -229 -239 -119 c-131 -65 -239 -119 -241 -119 -1 0 -57
109 -122 241 -118 237 -120 242 -119 308 0 56 5 77 31 122 35 63 56 70 132 44
90 -30 121 -67 226 -275 78 -156 100 -191 120 -196 29 -7 55 10 55 37 0 11
-41 100 -90 200 -98 195 -141 252 -224 299 l-49 28 34 4 c48 4 112 -8 156 -31z
m696 -490 c19 -8 57 -72 171 -295 80 -157 146 -297 146 -311 0 -14 -8 -33 -18
-43 -32 -32 -1031 -532 -1063 -532 -30 0 -69 30 -69 54 0 8 38 34 85 58 89 45
111 72 85 103 -20 24 -55 18 -140 -25 l-79 -40 -79 153 c-162 309 -165 318
-116 356 28 22 884 455 888 449 16 -19 235 -483 231 -487 -4 -3 -142 -76 -308
-161 -252 -129 -303 -159 -305 -178 -4 -29 14 -52 41 -52 30 0 629 307 655
336 12 14 22 38 22 55 0 17 -50 128 -125 279 -69 137 -125 252 -125 255 0 6
59 34 72 35 4 0 18 -4 31 -9z m-3 -1007 c0 -6 -14 -17 -31 -24 -35 -15 -69
-63 -69 -99 0 -13 153 -328 341 -699 333 -660 341 -677 337 -724 -3 -27 -10
-54 -15 -59 -16 -16 -88 8 -120 40 -24 25 -763 1465 -763 1488 0 5 64 40 143
80 l142 71 17 -32 c9 -17 17 -36 18 -42z m381 -745 c180 -354 330 -659 333
-676 7 -34 -8 -108 -23 -118 -5 -3 -14 18 -20 46 -7 32 -139 304 -344 711
-320 635 -331 659 -312 673 10 9 24 14 29 12 5 -2 157 -293 337 -648z"/>
<path d="M912 4828 c-5 -7 -24 -49 -41 -93 -93 -233 -280 -420 -509 -507 -153
-58 -152 -118 4 -182 227 -93 417 -286 504 -511 13 -33 34 -70 47 -82 50 -48
89 -21 131 89 84 221 278 419 492 502 103 40 115 49 118 86 4 49 -11 64 -103
100 -228 90 -410 270 -502 498 -20 48 -40 93 -45 100 -6 6 -27 12 -48 12 -21
0 -42 -6 -48 -12z m85 -207 c43 -92 134 -212 219 -289 70 -65 203 -153 261
-174 18 -7 33 -15 33 -19 0 -3 -19 -14 -42 -23 -177 -67 -393 -283 -484 -481
l-27 -59 -23 52 c-59 133 -195 298 -320 388 -33 24 -95 61 -137 83 l-77 39 64
30 c92 43 180 105 265 186 77 74 179 218 207 292 9 24 19 44 23 44 3 0 20 -31
38 -69z"/>
<path d="M4487 3749 c-10 -6 -32 -40 -49 -77 -48 -101 -123 -170 -230 -211
-15 -6 -34 -21 -43 -34 -25 -39 -5 -68 71 -101 85 -37 163 -115 200 -200 49
-114 96 -114 148 -1 44 96 105 157 201 201 115 53 115 95 0 148 -94 44 -157
107 -202 204 -18 39 -38 72 -42 72 -5 0 -15 2 -23 5 -7 2 -21 0 -31 -6z m126
-276 c19 -17 49 -39 66 -49 36 -21 39 -30 11 -39 -31 -10 -133 -109 -155 -149
-11 -20 -22 -36 -25 -36 -3 0 -17 19 -32 43 -31 48 -76 94 -131 130 l-37 25
32 23 c51 34 107 89 140 137 l30 44 33 -49 c18 -27 49 -63 68 -80z"/>
<path d="M1145 3011 c-86 -39 -104 -86 -105 -277 l0 -142 -72 -42 c-104 -62
-223 -184 -275 -285 -78 -152 -74 -82 -71 -1111 3 -918 3 -919 25 -966 30 -66
95 -132 156 -159 l52 -24 870 0 870 0 47 22 c66 30 132 102 157 169 21 54 21
70 21 977 0 637 -3 934 -11 962 -45 165 -199 349 -361 431 l-48 24 0 158 c0
144 -2 160 -23 197 -14 26 -37 48 -67 63 l-44 22 -541 0 c-503 0 -543 -2 -580
-19z m1144 -107 c12 -15 21 -40 21 -55 l0 -29 -381 0 c-243 0 -387 -4 -400
-10 -12 -7 -19 -21 -19 -40 0 -19 7 -33 19 -40 13 -6 157 -10 400 -10 l381 0
0 -87 c0 -49 4 -93 8 -99 4 -6 41 -28 82 -49 111 -58 226 -175 280 -286 l41
-84 -153 -5 c-160 -5 -190 -13 -231 -58 -46 -50 -46 -59 -47 -784 0 -423 4
-697 10 -712 12 -33 64 -37 80 -7 7 13 10 256 10 720 0 688 0 701 20 721 18
18 33 20 170 20 l150 0 0 -862 c0 -600 -3 -875 -11 -903 -7 -25 -29 -58 -58
-86 -37 -38 -56 -49 -102 -58 -40 -8 -284 -11 -870 -9 l-814 3 -45 25 c-24 14
-58 44 -75 68 -30 43 -30 45 -33 193 l-3 149 569 0 569 0 43 23 c30 16 51 37
67 67 l23 43 0 644 c0 622 -1 645 -20 683 -11 21 -34 49 -52 62 l-33 23 -570
6 c-314 4 -575 7 -582 8 -9 1 -9 11 2 42 46 130 152 260 275 334 l65 40 530 5
c292 3 536 9 543 13 19 13 15 65 -7 77 -13 6 -191 10 -510 10 l-491 0 0 55 0
55 107 0 c113 0 143 11 143 51 0 36 -38 49 -147 49 l-103 0 0 35 c0 22 8 43
20 55 20 20 33 20 564 20 l545 0 20 -26z m-436 -925 c14 -6 30 -22 36 -36 8
-17 11 -211 11 -643 l0 -619 -23 -27 -23 -26 -567 -6 -567 -5 0 147 0 146 388
0 c408 0 412 0 412 45 0 45 -4 45 -412 45 l-388 0 0 70 0 70 378 0 c326 0 381
2 400 16 26 18 28 46 6 68 -13 14 -64 16 -400 16 l-384 0 0 70 0 70 201 0
c119 0 208 4 220 10 30 16 26 68 -7 80 -14 6 -113 10 -220 10 l-194 0 0 255 0
255 555 0 c385 0 562 -3 578 -11z"/>
<path d="M3875 1546 c-11 -8 -85 -142 -165 -299 l-145 -286 0 -98 c1 -119 20
-167 95 -247 92 -98 231 -137 354 -102 73 22 119 51 174 110 68 74 86 124 87
239 l0 98 -145 286 c-80 157 -154 291 -165 299 -11 8 -31 14 -45 14 -14 0 -34
-6 -45 -14z m180 -360 l130 -255 -1 -68 c-1 -80 -18 -126 -68 -181 -101 -112
-291 -112 -392 0 -50 55 -67 101 -68 181 l-1 68 130 255 c71 140 132 254 135
254 3 0 64 -114 135 -254z"/>
<path d="M3989 996 c-9 -18 -7 -31 10 -64 30 -59 28 -107 -8 -142 -39 -39 -72
-46 -127 -25 -43 16 -46 16 -65 -1 -65 -58 75 -131 183 -95 40 13 92 61 115
105 26 49 21 132 -11 194 -23 45 -30 52 -56 52 -22 0 -33 -6 -41 -24z"/>
</g>
</svg>
