<?xml version="1.0" standalone="no"?>
<!DOCTYPE svg PUBLIC "-//W3C//DTD SVG 20010904//EN"
 "http://www.w3.org/TR/2001/REC-SVG-20010904/DTD/svg10.dtd">
<svg version="1.0" xmlns="http://www.w3.org/2000/svg"
 width="512.000000pt" height="512.000000pt" viewBox="0 0 512.000000 512.000000"
 preserveAspectRatio="xMidYMid meet">

<g transform="translate(0.000000,512.000000) scale(0.100000,-0.100000)"
fill="#000000" stroke="none">
<path d="M2185 4935 c-24 -23 -25 -29 -25 -160 l0 -135 -135 0 c-131 0 -137
-1 -160 -25 -25 -24 -25 -26 -25 -215 0 -189 0 -191 25 -215 23 -24 29 -25
160 -25 l135 0 0 -135 c0 -131 1 -137 25 -160 24 -25 26 -25 215 -25 189 0
191 0 215 25 24 23 25 29 25 160 l0 135 135 0 c131 0 137 1 160 25 25 24 25
26 25 215 0 189 0 191 -25 215 -23 24 -29 25 -160 25 l-135 0 0 135 c0 131 -1
137 -25 160 -24 25 -26 25 -215 25 -189 0 -191 0 -215 -25z m295 -270 c0 -131
1 -137 25 -160 23 -24 29 -25 160 -25 l135 0 0 -80 0 -80 -135 0 c-131 0 -137
-1 -160 -25 -24 -23 -25 -29 -25 -160 l0 -135 -80 0 -80 0 0 135 c0 131 -1
137 -25 160 -23 24 -29 25 -160 25 l-135 0 0 80 0 80 135 0 c131 0 137 1 160
25 24 23 25 29 25 160 l0 135 80 0 80 0 0 -135z"/>
<path d="M3545 4135 c-25 -24 -25 -24 -25 -240 l0 -215 -215 0 c-216 0 -216 0
-240 -25 l-25 -24 0 -271 0 -271 25 -24 c24 -25 24 -25 240 -25 l215 0 0 -215
c0 -216 0 -216 25 -240 l24 -25 271 0 271 0 24 25 c25 24 25 24 25 240 l0 215
215 0 c216 0 216 0 240 25 l25 24 0 271 0 271 -25 24 c-24 25 -24 25 -240 25
l-215 0 0 215 c0 216 0 216 -25 240 l-24 25 -271 0 -271 0 -24 -25z m455 -350
c0 -216 0 -216 25 -240 24 -25 24 -25 240 -25 l215 0 0 -160 0 -160 -215 0
c-288 0 -265 23 -265 -265 l0 -215 -160 0 -160 0 0 215 c0 288 23 265 -265
265 l-215 0 0 160 0 160 215 0 c288 0 265 -23 265 265 l0 215 160 0 160 0 0
-215z"/>
<path d="M985 3975 c-24 -23 -25 -29 -25 -160 l0 -135 -135 0 c-131 0 -137 -1
-160 -25 -25 -24 -25 -26 -25 -215 0 -189 0 -191 25 -215 23 -24 29 -25 160
-25 l135 0 0 -135 c0 -131 1 -137 25 -160 24 -25 26 -25 215 -25 189 0 191 0
215 25 24 23 25 29 25 160 l0 135 135 0 c131 0 137 1 160 25 25 24 25 26 25
215 0 189 0 191 -25 215 -23 24 -29 25 -160 25 l-135 0 0 135 c0 131 -1 137
-25 160 -24 25 -26 25 -215 25 -189 0 -191 0 -215 -25z m295 -270 c0 -131 1
-137 25 -160 23 -24 29 -25 160 -25 l135 0 0 -80 0 -80 -135 0 c-131 0 -137
-1 -160 -25 -24 -23 -25 -29 -25 -160 l0 -135 -80 0 -80 0 0 135 c0 131 -1
137 -25 160 -23 24 -29 25 -160 25 l-135 0 0 80 0 80 135 0 c131 0 137 1 160
25 24 23 25 29 25 160 l0 135 80 0 80 0 0 -135z"/>
<path d="M105 2455 c-16 -15 -25 -36 -25 -55 0 -19 9 -40 25 -55 l24 -25 2431
0 2431 0 24 25 c33 32 33 78 0 110 l-24 25 -2431 0 -2431 0 -24 -25z"/>
<path d="M105 2055 c-30 -29 -33 -73 -7 -105 14 -17 35 -25 81 -31 87 -12 112
-28 231 -143 163 -159 289 -204 447 -162 97 26 145 57 253 162 131 127 152
139 250 139 98 0 120 -12 250 -140 162 -158 289 -203 447 -161 95 25 146 58
253 162 131 127 153 139 250 139 98 0 122 -14 241 -135 158 -161 293 -209 464
-165 94 25 153 63 250 163 114 119 146 137 245 137 98 0 119 -12 250 -139 116
-113 180 -151 287 -169 45 -8 81 -8 126 0 107 18 171 55 287 168 119 116 145
132 231 144 46 6 67 14 81 31 43 54 3 130 -69 130 -119 -1 -212 -48 -343 -176
-131 -127 -152 -139 -250 -139 -99 0 -131 18 -245 137 -98 101 -171 148 -263
167 -171 36 -297 -12 -451 -169 -119 -121 -143 -135 -241 -135 -99 0 -131 18
-245 137 -97 100 -156 138 -250 163 -171 44 -306 -4 -464 -165 -119 -121 -143
-135 -241 -135 -97 0 -119 12 -250 139 -107 104 -158 137 -253 162 -158 42
-285 -3 -447 -161 -130 -128 -152 -140 -250 -140 -97 0 -118 12 -250 140 -108
104 -170 143 -261 164 -75 18 -117 14 -144 -14z"/>
<path d="M105 1255 c-16 -15 -25 -36 -25 -55 0 -19 9 -40 25 -55 23 -24 31
-25 135 -25 104 0 112 1 135 25 33 32 33 78 0 110 -23 24 -31 25 -135 25 -104
0 -112 -1 -135 -25z"/>
<path d="M825 1255 c-16 -15 -25 -36 -25 -55 0 -19 9 -40 25 -55 23 -24 31
-25 135 -25 104 0 112 1 135 25 16 15 25 36 25 55 0 19 -9 40 -25 55 -23 24
-31 25 -135 25 -104 0 -112 -1 -135 -25z"/>
<path d="M1625 1255 c-16 -15 -25 -36 -25 -55 0 -19 9 -40 25 -55 23 -24 31
-25 135 -25 104 0 112 1 135 25 16 15 25 36 25 55 0 19 -9 40 -25 55 -23 24
-31 25 -135 25 -104 0 -112 -1 -135 -25z"/>
<path d="M2425 1255 c-16 -15 -25 -36 -25 -55 0 -19 9 -40 25 -55 23 -24 31
-25 135 -25 104 0 112 1 135 25 16 15 25 36 25 55 0 19 -9 40 -25 55 -23 24
-31 25 -135 25 -104 0 -112 -1 -135 -25z"/>
<path d="M3225 1255 c-16 -15 -25 -36 -25 -55 0 -19 9 -40 25 -55 23 -24 31
-25 135 -25 104 0 112 1 135 25 16 15 25 36 25 55 0 19 -9 40 -25 55 -23 24
-31 25 -135 25 -104 0 -112 -1 -135 -25z"/>
<path d="M4025 1255 c-16 -15 -25 -36 -25 -55 0 -19 9 -40 25 -55 23 -24 31
-25 135 -25 104 0 112 1 135 25 16 15 25 36 25 55 0 19 -9 40 -25 55 -23 24
-31 25 -135 25 -104 0 -112 -1 -135 -25z"/>
<path d="M4745 1255 c-16 -15 -25 -36 -25 -55 0 -19 9 -40 25 -55 23 -24 31
-25 135 -25 104 0 112 1 135 25 16 15 25 36 25 55 0 19 -9 40 -25 55 -23 24
-31 25 -135 25 -104 0 -112 -1 -135 -25z"/>
<path d="M425 855 c-16 -15 -25 -36 -25 -55 0 -19 9 -40 25 -55 23 -24 31 -25
135 -25 104 0 112 1 135 25 16 15 25 36 25 55 0 19 -9 40 -25 55 -23 24 -31
25 -135 25 -104 0 -112 -1 -135 -25z"/>
<path d="M1225 855 c-16 -15 -25 -36 -25 -55 0 -19 9 -40 25 -55 23 -24 31
-25 135 -25 104 0 112 1 135 25 16 15 25 36 25 55 0 19 -9 40 -25 55 -23 24
-31 25 -135 25 -104 0 -112 -1 -135 -25z"/>
<path d="M2025 855 c-16 -15 -25 -36 -25 -55 0 -19 9 -40 25 -55 23 -24 31
-25 135 -25 104 0 112 1 135 25 16 15 25 36 25 55 0 19 -9 40 -25 55 -23 24
-31 25 -135 25 -104 0 -112 -1 -135 -25z"/>
<path d="M2825 855 c-16 -15 -25 -36 -25 -55 0 -19 9 -40 25 -55 23 -24 31
-25 135 -25 104 0 112 1 135 25 16 15 25 36 25 55 0 19 -9 40 -25 55 -23 24
-31 25 -135 25 -104 0 -112 -1 -135 -25z"/>
<path d="M3625 855 c-16 -15 -25 -36 -25 -55 0 -19 9 -40 25 -55 23 -24 31
-25 135 -25 104 0 112 1 135 25 16 15 25 36 25 55 0 19 -9 40 -25 55 -23 24
-31 25 -135 25 -104 0 -112 -1 -135 -25z"/>
<path d="M4425 855 c-16 -15 -25 -36 -25 -55 0 -19 9 -40 25 -55 23 -24 31
-25 135 -25 104 0 112 1 135 25 16 15 25 36 25 55 0 19 -9 40 -25 55 -23 24
-31 25 -135 25 -104 0 -112 -1 -135 -25z"/>
<path d="M825 455 c-16 -15 -25 -36 -25 -55 0 -19 9 -40 25 -55 23 -24 31 -25
135 -25 104 0 112 1 135 25 16 15 25 36 25 55 0 19 -9 40 -25 55 -23 24 -31
25 -135 25 -104 0 -112 -1 -135 -25z"/>
<path d="M1625 455 c-16 -15 -25 -36 -25 -55 0 -19 9 -40 25 -55 23 -24 31
-25 135 -25 104 0 112 1 135 25 16 15 25 36 25 55 0 19 -9 40 -25 55 -23 24
-31 25 -135 25 -104 0 -112 -1 -135 -25z"/>
<path d="M2425 455 c-16 -15 -25 -36 -25 -55 0 -19 9 -40 25 -55 23 -24 31
-25 135 -25 104 0 112 1 135 25 16 15 25 36 25 55 0 19 -9 40 -25 55 -23 24
-31 25 -135 25 -104 0 -112 -1 -135 -25z"/>
<path d="M3225 455 c-16 -15 -25 -36 -25 -55 0 -19 9 -40 25 -55 23 -24 31
-25 135 -25 104 0 112 1 135 25 16 15 25 36 25 55 0 19 -9 40 -25 55 -23 24
-31 25 -135 25 -104 0 -112 -1 -135 -25z"/>
<path d="M4025 455 c-16 -15 -25 -36 -25 -55 0 -19 9 -40 25 -55 23 -24 31
-25 135 -25 104 0 112 1 135 25 16 15 25 36 25 55 0 19 -9 40 -25 55 -23 24
-31 25 -135 25 -104 0 -112 -1 -135 -25z"/>
</g>
</svg>
